<?xml version="1.0" standalone="no"?>
<!DOCTYPE svg PUBLIC "-//W3C//DTD SVG 20010904//EN"
 "http://www.w3.org/TR/2001/REC-SVG-20010904/DTD/svg10.dtd">
<svg version="1.0" xmlns="http://www.w3.org/2000/svg"
 width="500.000000pt" height="500.000000pt" viewBox="0 0 500.000000 500.000000"
 preserveAspectRatio="xMidYMid meet">
<metadata>
Created by potrace 1.14, written by Peter Selinger 2001-2017
</metadata>
<g transform="translate(0.000000,500.000000) scale(0.100000,-0.100000)"
fill="#000000" stroke="none">
<path d="M0 2500 l0 -2500 2500 0 2500 0 0 2500 0 2500 -2500 0 -2500 0 0
-2500z m2498 1978 l-3 -153 -125 -6 c-294 -16 -562 -73 -720 -155 -170 -89
-399 -350 -516 -589 -105 -216 -148 -411 -148 -670 -1 -173 -2 -181 -23 -198
-32 -26 -63 -98 -63 -148 0 -24 22 -299 50 -609 27 -311 51 -583 52 -605 3
-39 3 -40 -34 -43 -68 -6 -144 53 -155 121 -5 31 -12 41 -43 57 -82 42 -161
165 -195 305 -21 85 -23 239 -5 315 20 84 69 178 115 218 38 33 41 41 37 74
-5 44 29 121 63 144 21 13 21 18 12 72 -6 31 -11 149 -11 262 0 172 3 224 22
323 91 481 359 897 742 1152 267 178 576 279 868 284 l83 1 -3 -152z m1693
-1931 c55 -37 79 -81 79 -146 0 -123 -80 -956 -96 -999 -21 -57 -71 -94 -134
-100 -41 -4 -50 -2 -50 11 0 21 98 1135 105 1205 6 49 8 52 34 52 16 0 43 -10
62 -23z"/>
</g>
</svg>
